<?xml version="1.0" encoding="UTF-8"?>
<svg width="600px" height="600px" viewBox="0 0 600 600" version="1.1" xmlns="http://www.w3.org/2000/svg" xmlns:xlink="http://www.w3.org/1999/xlink">
    <!-- Generator: Sketch 61 (89581) - https://sketch.com -->
    <title>banque-bp-small</title>
    <desc>Created with Sketch.</desc>
    <defs>
        <linearGradient x1="95.3653879%" y1="4.62194758%" x2="26.0370078%" y2="73.9753298%" id="linearGradient-1">
            <stop stop-color="#42B8EB" offset="0%"></stop>
            <stop stop-color="#3EAADE" offset="10%"></stop>
            <stop stop-color="#2E73AD" offset="32%"></stop>
            <stop stop-color="#234B89" offset="51%"></stop>
            <stop stop-color="#1C3373" offset="66%"></stop>
            <stop stop-color="#192A6B" offset="100%"></stop>
        </linearGradient>
    </defs>
    <g id="banque-bp-small" stroke="none" stroke-width="1" fill="none" fill-rule="evenodd">
        <g id="logo_rvb" fill-rule="nonzero">
            <path d="M588.659645,0 L175.732218,0 L4.9776367,170.766408 C1.79869542,173.948002 0.00900258847,178.259126 0,182.75685 L0,583.029848 C0,592.40125 7.59649595,600 16.9672486,600 L417.255807,600 C421.822784,600.063416 426.223148,598.284422 429.461838,595.063577 L600,424.470316 L600,11.3411404 C600,5.07760152 594.92275,0 588.659645,0 Z" id="Shape" fill="url(#linearGradient-1)"></path>
            <path d="M515.077189,448.278054 L449.155966,448.278054 C447.80883,448.26453 446.544801,447.624471 445.736546,446.546582 L384.143702,363.349361 L322.68071,446.416722 C321.813357,447.578989 320.451716,448.267867 319.001587,448.278054 L254.075891,448.278054 C252.3536,448.257882 250.787696,447.274729 250.021064,445.732232 C249.254432,444.189735 249.416238,442.347779 250.440052,440.962585 L343.846487,314.608429 C345.016814,312.978753 345.016814,310.783969 343.846487,309.154293 L250.050498,181.631394 C249.42264,180.8219 249.310368,179.725555 249.761119,178.805591 C250.211871,177.885626 251.147004,177.3027 252.171404,177.3027 L321.252345,177.3027 C322.705775,177.299129 324.073253,177.99096 324.931467,179.164046 L384.143702,259.980494 L443.572356,179.207333 C444.380611,178.129444 445.64464,177.489385 446.991776,177.475861 L516.245852,177.475861 C517.270251,177.475693 518.205385,178.058774 518.656136,178.978738 C519.106888,179.898702 518.994616,180.995048 518.366758,181.804541 L424.311066,309.370727 C423.241186,310.87349 423.241186,312.889232 424.311066,314.391995 L518.410042,441.482027 C519.311729,442.779037 519.435331,444.46428 518.732532,445.878986 C518.029733,447.293692 516.612144,448.213194 515.033906,448.278054 L515.077189,448.278054 Z" id="Shape-path" fill="#FFFFFF"></path>
            <path d="M0,279.979286 L100.807964,279.979286 L100.807964,181.934694 C100.831723,179.202351 103.053343,177 105.785601,177 L160.71274,177 C163.444998,177 165.666618,179.202351 165.690377,181.934694 L165.690377,279.979286 L263.338624,279.979286 C266.063791,279.979286 268.272976,282.188624 268.272976,284.913981 L268.272976,339.888211 C268.272976,342.613568 266.063791,344.822906 263.338624,344.822906 L165.690377,344.822906 L165.690377,442.867497 C165.666862,445.606961 163.452014,447.821963 160.71274,447.845479 L105.785601,447.845479 C103.046327,447.821963 100.831479,445.606961 100.807964,442.867497 L100.807964,344.822906 L0,344.822906 L0,279.979286 Z" id="Shape-path" fill="#FFFFFF"></path>
        </g>
    </g>
</svg>