<?xml version="1.0" encoding="UTF-8"?>
<svg width="3051px" height="600px" viewBox="0 0 3051 600" version="1.1" xmlns="http://www.w3.org/2000/svg" xmlns:xlink="http://www.w3.org/1999/xlink">
    <!-- Generator: Sketch 61 (89581) - https://sketch.com -->
    <title>bp-large</title>
    <desc>Created with Sketch.</desc>
    <defs>
        <linearGradient x1="95.3653879%" y1="4.62194758%" x2="26.0370078%" y2="73.9753298%" id="linearGradient-1">
            <stop stop-color="#42B8EB" offset="0%"></stop>
            <stop stop-color="#3EAADE" offset="10%"></stop>
            <stop stop-color="#2E73AD" offset="32%"></stop>
            <stop stop-color="#234B89" offset="51%"></stop>
            <stop stop-color="#1C3373" offset="66%"></stop>
            <stop stop-color="#192A6B" offset="100%"></stop>
        </linearGradient>
    </defs>
    <g id="bp-large" stroke="none" stroke-width="1" fill="none" fill-rule="evenodd">
        <g id="logo_rvb" transform="translate(0.000000, 177.000000)" fill="#FFFFFF" fill-rule="nonzero">
            <path d="M515.077189,271.278054 L449.155966,271.278054 C447.80883,271.26453 446.544801,270.624471 445.736546,269.546582 L384.143702,186.349361 L322.68071,269.416722 C321.813357,270.578989 320.451716,271.267867 319.001587,271.278054 L254.075891,271.278054 C252.3536,271.257882 250.787696,270.274729 250.021064,268.732232 C249.254432,267.189735 249.416238,265.347779 250.440052,263.962585 L343.846487,137.608429 C345.016814,135.978753 345.016814,133.783969 343.846487,132.154293 L250.050498,4.631394 C249.42264,3.8219 249.310368,2.725555 249.761119,1.805591 C250.211871,0.885626 251.147004,0.302700135 252.171404,0.302700135 L321.252345,0.302700135 C322.705775,0.299129 324.073253,0.99096 324.931467,2.164046 L384.143702,82.980494 L443.572356,2.207333 C444.380611,1.129444 445.64464,0.489385 446.991776,0.475861 L516.245852,0.475861 C517.270251,0.475693 518.205385,1.058774 518.656136,1.978738 C519.106888,2.898702 518.994616,3.995048 518.366758,4.804541 L424.311066,132.370727 C423.241186,133.87349 423.241186,135.889232 424.311066,137.391995 L518.410042,264.482027 C519.311729,265.779037 519.435331,267.46428 518.732532,268.878986 C518.029733,270.293692 516.612144,271.213194 515.033906,271.278054 L515.077189,271.278054 Z" id="Shape-path"></path>
            <path d="M0,102.979286 L100.807964,102.979286 L100.807964,4.934694 C100.831723,2.202351 103.053343,0 105.785601,0 L160.71274,0 C163.444998,0 165.666618,2.202351 165.690377,4.934694 L165.690377,102.979286 L263.338624,102.979286 C266.063791,102.979286 268.272976,105.188624 268.272976,107.913981 L268.272976,162.888211 C268.272976,165.613568 266.063791,167.822906 263.338624,167.822906 L165.690377,167.822906 L165.690377,265.867497 C165.666862,268.606961 163.452014,270.821963 160.71274,270.845479 L105.785601,270.845479 C103.046327,270.821963 100.831479,268.606961 100.807964,265.867497 L100.807964,167.822906 L0,167.822906 L0,102.979286 Z" id="Shape-path"></path>
        </g>
        <g id="logo_bp_rvb_texte" fill-rule="nonzero">
            <path d="M2685.37758,176.599634 L2658.03966,176.599634 C2657.58402,176.599634 2656.67276,177.035165 2656.67276,177.906226 L2656.67276,323.373481 C2656.67276,323.809012 2657.12839,324.680073 2658.03966,324.680073 L2684.92195,324.680073 C2685.37758,324.680073 2686.28885,324.244542 2686.28885,323.373481 L2686.28885,177.906226 C2686.28885,177.470696 2685.83322,176.599634 2685.37758,176.599634 Z" id="Shape" fill="#192A6B"></path>
            <path d="M1948.41105,175.502742 C1904.84435,175.502742 1871.29799,209.580764 1871.29799,252.833638 C1871.29799,296.086512 1905.28002,330.164534 1948.41105,330.164534 C1991.97775,330.164534 2025.95978,296.086512 2025.95978,252.833638 C2025.95978,209.580764 1991.97775,175.502742 1948.41105,175.502742 Z M1997.64142,252.833638 C1997.64142,281.668887 1975.85807,304.387569 1948.41105,304.387569 C1920.96403,304.387569 1899.18068,281.668887 1899.18068,252.833638 C1899.18068,223.998389 1920.96403,201.279707 1948.41105,201.279707 C1975.85807,201.279707 1997.64142,223.998389 1997.64142,252.833638 Z" id="Shape" fill="#192A6B"></path>
            <path d="M2116.08775,176.599634 L2050.95978,176.599634 C2050.52559,176.599634 2050.09141,177.035165 2050.09141,177.470696 L2050.09141,323.809012 C2050.09141,324.244542 2050.52559,324.680073 2050.95978,324.680073 L2077.01097,324.680073 C2077.44516,324.680073 2077.87934,324.244542 2077.87934,323.809012 L2077.87934,282.869126 L2111.74589,282.869126 C2150.38848,282.869126 2175.13711,261.528121 2175.13711,228.427788 C2175.13711,197.069577 2152.12523,176.599634 2116.08775,176.599634 Z M2114.78519,258.043876 L2077.87934,258.043876 L2077.87934,201.860415 L2114.78519,201.860415 C2134.32358,201.860415 2147.78336,212.748683 2147.78336,228.427788 C2147.78336,246.284547 2134.32358,258.043876 2114.78519,258.043876 Z" id="Shape" fill="#192A6B"></path>
            <path d="M1793.60146,176.599634 L1728.47349,176.599634 C1728.03931,176.599634 1727.60512,177.035165 1727.60512,177.470696 L1727.60512,323.809012 C1727.60512,324.244542 1728.03931,324.680073 1728.47349,324.680073 L1754.52468,324.680073 C1754.95887,324.680073 1755.39305,324.244542 1755.39305,323.809012 L1755.39305,282.869126 L1789.2596,282.869126 C1827.90219,282.869126 1852.65082,261.528121 1852.65082,228.427788 C1852.65082,197.069577 1829.20475,176.599634 1793.60146,176.599634 Z M1792.2989,258.043876 L1755.39305,258.043876 L1755.39305,201.860415 L1792.2989,201.860415 C1811.83729,201.860415 1825.29707,212.748683 1825.29707,228.427788 C1825.29707,246.284547 1811.83729,258.043876 1792.2989,258.043876 Z" id="Shape" fill="#192A6B"></path>
            <path d="M2335.87553,176.599634 L2309.64941,176.599634 C2309.21231,176.599634 2308.77521,177.032701 2308.77521,177.465768 L2308.77521,257.150082 C2308.77521,283.567165 2293.03954,301.322909 2269.43603,301.322909 C2246.26962,301.322909 2230.53394,283.567165 2230.53394,257.150082 L2230.53394,177.465768 C2230.53394,177.032701 2230.09684,176.599634 2229.65974,176.599634 L2203.43362,176.599634 C2202.99652,176.599634 2202.55941,177.032701 2202.55941,177.465768 L2202.55941,257.150082 C2202.55941,300.456775 2227.91133,326.873857 2268.99892,326.873857 C2310.52362,326.873857 2335.87553,300.023708 2335.87553,257.150082 L2335.87553,177.465768 C2336.74974,177.032701 2336.31264,176.599634 2335.87553,176.599634 Z" id="Shape" fill="#192A6B"></path>
            <path d="M2461.23009,298.817363 L2394.98564,298.817363 L2394.98564,177.460323 C2394.98564,177.029978 2394.54982,176.599634 2394.114,176.599634 L2367.96487,176.599634 C2367.52905,176.599634 2367.09324,177.029978 2367.09324,177.460323 L2367.09324,314.740095 C2367.09324,319.043536 2370.57979,322.486289 2374.93797,322.486289 L2452.07789,322.486289 C2454.25699,322.486289 2456.43608,321.195257 2457.30772,319.043536 L2464.28082,302.69046 C2464.28082,302.260116 2464.71664,301.829771 2464.71664,301.399427 C2463.845,300.108395 2462.53754,298.817363 2461.23009,298.817363 Z" id="Shape" fill="#192A6B"></path>
            <path d="M2570.46631,177.032618 C2570.46631,176.599634 2570.03064,176.599634 2569.59497,176.599634 L2543.01929,176.599634 C2542.58362,176.599634 2542.58362,176.599634 2542.14795,177.032618 L2478.97623,323.381122 C2478.97623,323.814106 2478.97623,323.814106 2478.97623,324.247089 C2478.97623,324.680073 2479.4119,324.680073 2479.84757,324.680073 L2507.73026,324.680073 C2508.16592,324.680073 2508.16592,324.680073 2508.60159,324.247089 L2520.3646,295.670163 L2592.68533,295.670163 L2604.44834,324.247089 C2604.44834,324.680073 2604.884,324.680073 2605.31967,324.680073 L2632.76669,324.680073 C2633.20236,324.680073 2633.20236,324.680073 2633.63803,324.247089 C2633.63803,323.814106 2633.63803,323.814106 2633.63803,323.381122 L2570.46631,177.032618 Z M2530.38494,270.124122 L2556.0893,206.475512 L2582.22932,270.124122 L2530.38494,270.124122 Z" id="Shape" fill="#192A6B"></path>
            <path d="M2815.44135,271.980858 L2818.04693,270.674266 C2835.41751,261.963652 2845.40559,245.849016 2845.40559,226.685665 C2845.40559,196.634047 2821.95531,176.599634 2787.21416,176.599634 L2725.5486,176.599634 C2725.11434,176.599634 2724.68007,177.035165 2724.68007,177.470696 L2724.68007,323.809012 C2724.68007,324.244542 2725.11434,324.680073 2725.5486,324.680073 L2751.60447,324.680073 C2752.03873,324.680073 2752.473,324.244542 2752.473,323.809012 L2752.473,277.207227 L2786.34563,277.207227 L2819.34973,324.244542 C2819.34973,324.680073 2819.78399,324.680073 2820.21826,324.680073 L2851.05103,324.680073 C2851.4853,324.680073 2851.4853,324.680073 2851.91956,324.244542 C2851.91956,323.809012 2851.91956,323.809012 2851.91956,323.373481 L2815.44135,271.980858 Z M2752.473,201.860415 L2785.91136,201.860415 C2804.15047,201.860415 2817.61267,212.313152 2817.61267,227.121196 C2817.61267,241.493709 2804.15047,252.381977 2785.91136,252.381977 L2752.473,252.381977 L2752.473,201.860415 Z" id="Shape" fill="#192A6B"></path>
            <path d="M799.043442,247.816492 L796.467359,247.384875 L798.614095,246.52164 C806.342345,242.637084 816.217331,232.278269 816.217331,214.150341 C816.217331,190.843006 798.184748,176.599634 767.701095,176.599634 L702.869663,176.599634 C702.440316,176.599634 702.010969,177.031252 702.010969,177.462869 L702.010969,314.717177 C702.010969,319.03335 705.445747,322.486289 709.739219,322.486289 L771.135872,322.486289 C802.47822,322.486289 822.657539,306.948065 822.657539,283.209113 C823.086887,261.196629 811.494512,252.132666 799.043442,247.816492 Z M729.918539,199.475352 L763.836969,199.475352 C788.309761,199.475352 790.885845,212.423872 790.885845,218.034897 C790.885845,230.551799 780.581511,238.320911 763.836969,238.320911 L729.918539,238.320911 L729.918539,199.475352 Z M769.418483,299.610571 L729.918539,299.610571 L729.918539,261.628247 L770.277178,261.628247 C786.592372,261.628247 796.467359,268.534124 796.467359,279.756174 C796.467359,288.820138 789.168456,299.610571 769.418483,299.610571 Z" id="Shape" fill="#192A6B"></path>
            <path d="M1150.63985,323.377313 L1150.63985,177.468141 C1150.63985,177.033888 1150.20829,176.599634 1149.77673,176.599634 L1123.88288,176.599634 C1123.45131,176.599634 1123.01975,177.033888 1123.01975,177.468141 L1123.01975,275.175176 L1040.15944,177.033888 C1040.15944,177.033888 1039.72787,176.599634 1039.72787,176.599634 L1019.87593,176.599634 C1019.44436,176.599634 1019.0128,177.033888 1019.0128,177.468141 L1019.0128,323.377313 C1019.0128,323.811566 1019.44436,324.24582 1019.87593,324.24582 L1045.76977,324.24582 C1046.20134,324.24582 1046.6329,323.811566 1046.6329,323.377313 L1046.6329,228.275799 L1129.06165,324.24582 C1129.06165,324.24582 1129.49321,324.680073 1129.49321,324.680073 L1149.77673,324.680073 C1150.20829,324.24582 1150.63985,323.811566 1150.63985,323.377313 Z" id="Shape" fill="#192A6B"></path>
            <path d="M1429.46841,326.873857 C1470.87876,326.873857 1496.16088,300.023708 1496.16088,257.150082 L1496.16088,177.465768 C1496.16088,177.032701 1495.72498,176.599634 1495.28908,176.599634 L1469.13517,176.599634 C1468.69927,176.599634 1468.26337,177.032701 1468.26337,177.465768 L1468.26337,257.150082 C1468.26337,283.567165 1452.57103,301.322909 1429.03251,301.322909 C1405.92989,301.322909 1390.23754,283.567165 1390.23754,257.150082 L1390.23754,177.465768 C1390.23754,177.032701 1389.80164,176.599634 1389.36574,176.599634 L1363.21183,176.599634 C1362.77594,176.599634 1362.34004,177.032701 1362.34004,177.465768 L1362.34004,257.150082 C1362.77594,300.456775 1388.49395,326.873857 1429.46841,326.873857 Z" id="Shape" fill="#192A6B"></path>
            <path d="M2878.01311,176.599634 C2877.58059,176.599634 2877.14808,177.029978 2877.14808,177.460323 L2877.14808,314.740095 C2877.14808,319.043536 2880.6082,322.486289 2884.93334,322.486289 L2965.38101,322.486289 C2967.11107,322.486289 2968.84113,321.625601 2970.13867,320.334568 L2983.1141,302.69046 C2983.54662,302.260116 2983.54662,301.399427 2983.54662,300.969083 C2983.54662,299.247707 2982.24907,297.956674 2980.51902,297.956674 L2904.39649,297.956674 L2904.39649,263.098801 L2956.73073,263.098801 C2957.16324,263.098801 2957.59576,262.668457 2957.59576,262.238113 L2957.59576,239.429875 C2957.59576,238.999531 2957.16324,238.569187 2956.73073,238.569187 L2904.39649,238.569187 L2904.39649,201.129249 L2977.0589,201.129249 C2977.49142,201.129249 2977.92393,200.698905 2977.92393,200.268561 L2977.92393,177.460323 C2977.92393,177.029978 2977.49142,176.599634 2977.0589,176.599634 L2878.01311,176.599634 Z" id="Shape" fill="#192A6B"></path>
            <path d="M1529.93267,176.599634 C1529.50016,176.599634 1529.06764,177.029978 1529.06764,177.460323 L1529.06764,314.740095 C1529.06764,319.043536 1532.52776,322.486289 1536.8529,322.486289 L1617.30058,322.486289 C1619.03063,322.486289 1620.76069,321.625601 1622.05823,320.334568 L1635.03366,302.69046 C1635.46618,302.260116 1635.46618,301.399427 1635.46618,300.969083 C1635.46618,299.247707 1634.16864,297.956674 1632.43858,297.956674 L1556.31605,297.956674 L1556.31605,263.098801 L1609.51532,263.098801 C1609.94783,263.098801 1610.38035,262.668457 1610.38035,262.238113 L1610.38035,239.429875 C1610.38035,238.999531 1609.94783,238.569187 1609.51532,238.569187 L1557.18108,238.569187 L1557.18108,201.129249 L1629.84349,201.129249 C1630.27601,201.129249 1630.70852,200.698905 1630.70852,200.268561 L1630.70852,177.460323 C1630.70852,177.029978 1630.27601,176.599634 1629.84349,176.599634 L1529.93267,176.599634 Z" id="Shape" fill="#192A6B"></path>
            <path d="M1345.88665,307.88275 C1345.88665,308.319648 1345.88665,309.193443 1345.4536,309.630341 L1332.02878,327.980045 C1331.16266,329.290738 1329.43042,330.164534 1327.26513,330.164534 L1255.37738,330.164534 C1234.59056,329.727636 1215.53598,321.863477 1201.24504,307.445853 C1186.95411,293.028228 1179.15905,273.804728 1179.15905,252.833638 C1179.15905,209.580764 1212.93763,175.502742 1255.81044,175.502742 C1299.11631,175.502742 1332.89489,209.580764 1332.89489,252.833638 C1332.89489,270.746444 1325.96595,288.222353 1313.40725,302.639978 L1310.37584,306.135159 C1310.37584,306.135159 1342.85524,304.824466 1342.85524,304.824466 C1345.02054,304.824466 1345.88665,306.135159 1345.88665,307.88275 Z M1207.30787,252.833638 C1207.30787,281.668887 1228.9608,304.387569 1256.2435,304.387569 C1283.5262,304.387569 1305.17914,281.668887 1305.17914,252.833638 C1305.17914,223.998389 1283.5262,201.279707 1256.2435,201.279707 C1228.52774,201.279707 1207.30787,223.998389 1207.30787,252.833638 Z" id="Shape" fill="#192A6B"></path>
            <path d="M931.155776,177.035165 C931.155776,176.599634 930.723856,176.599634 930.291935,176.599634 L904.376693,176.599634 C903.944772,176.599634 903.944772,176.599634 903.512851,177.035165 L841.316271,323.373481 C841.316271,323.809012 841.316271,323.809012 841.316271,324.244542 C841.316271,324.680073 841.748191,324.680073 842.180112,324.680073 L869.391116,324.680073 C869.823037,324.680073 869.823037,324.680073 870.254958,324.244542 L881.916816,295.499516 L953.183732,295.499516 L964.845591,324.244542 C964.845591,324.680073 965.277512,324.680073 965.709432,324.680073 L992.920436,324.680073 C993.352357,324.680073 993.352357,324.680073 993.784278,324.244542 C993.784278,323.809012 993.784278,323.809012 993.784278,323.373481 L931.155776,177.035165 Z M943.249556,270.674266 L891.850993,270.674266 L917.334314,206.651253 L943.249556,270.674266 Z" id="Shape" fill="#192A6B"></path>
            <path d="M588.659645,0 L175.732218,0 L4.9776367,170.766408 C1.79869542,173.948002 0.00900258847,178.259126 0,182.75685 L0,583.029848 C0,592.40125 7.59649595,600 16.9672486,600 L417.255807,600 C421.822784,600.063416 426.223148,598.284422 429.461838,595.063577 L600,424.470316 L600,11.3411404 C600,5.07760152 594.92275,0 588.659645,0 Z" id="Shape" fill="url(#linearGradient-1)"></path>
            <path d="M515.077189,448.278054 L449.155966,448.278054 C447.80883,448.26453 446.544801,447.624471 445.736546,446.546582 L384.143702,363.349361 L322.68071,446.416722 C321.813357,447.578989 320.451716,448.267867 319.001587,448.278054 L254.075891,448.278054 C252.3536,448.257882 250.787696,447.274729 250.021064,445.732232 C249.254432,444.189735 249.416238,442.347779 250.440052,440.962585 L343.846487,314.608429 C345.016814,312.978753 345.016814,310.783969 343.846487,309.154293 L250.050498,181.631394 C249.42264,180.8219 249.310368,179.725555 249.761119,178.805591 C250.211871,177.885626 251.147004,177.3027 252.171404,177.3027 L321.252345,177.3027 C322.705775,177.299129 324.073253,177.99096 324.931467,179.164046 L384.143702,259.980494 L443.572356,179.207333 C444.380611,178.129444 445.64464,177.489385 446.991776,177.475861 L516.245852,177.475861 C517.270251,177.475693 518.205385,178.058774 518.656136,178.978738 C519.106888,179.898702 518.994616,180.995048 518.366758,181.804541 L424.311066,309.370727 C423.241186,310.87349 423.241186,312.889232 424.311066,314.391995 L518.410042,441.482027 C519.311729,442.779037 519.435331,444.46428 518.732532,445.878986 C518.029733,447.293692 516.612144,448.213194 515.033906,448.278054 L515.077189,448.278054 Z" id="Shape-path" fill="#FFFFFF"></path>
            <path d="M0,279.979286 L100.807964,279.979286 L100.807964,181.934694 C100.831723,179.202351 103.053343,177 105.785601,177 L160.71274,177 C163.444998,177 165.666618,179.202351 165.690377,181.934694 L165.690377,279.979286 L263.338624,279.979286 C266.063791,279.979286 268.272976,282.188624 268.272976,284.913981 L268.272976,339.888211 C268.272976,342.613568 266.063791,344.822906 263.338624,344.822906 L165.690377,344.822906 L165.690377,442.867497 C165.666862,445.606961 163.452014,447.821963 160.71274,447.845479 L105.785601,447.845479 C103.046327,447.821963 100.831479,445.606961 100.807964,442.867497 L100.807964,344.822906 L0,344.822906 L0,279.979286 Z" id="Shape-path" fill="#FFFFFF"></path>
        </g>
    </g>
</svg>